<svg viewBox="0 0 1024 1176.463" xmlns="http://www.w3.org/2000/svg"><path d="M107.156 771.045l4.598 6.878c28.2 42.176 61.302 78.266 99.127 108.73l.925.72 6.278 5.157v-8.038c-3.957-26.918-6.827-59.18-7.958-91.883l-.042-1.532v-2.84h-2.88c-34.67-3.348-65.984-8.808-96.446-16.42l4.472.945zM238.72 687.07v4.558c-3.07 21.19-5.24 46.454-6.014 72.067l-.025 1.032v3.12h37.23c11.476 0 24.952.56 37.83 0h8.355l-6.638-5.16c-25.395-20.936-47.1-45.11-64.833-72.124l-.748-1.214zm-101.73-46.747l-1.4 3.2c-14.237 27.743-27.585 60.587-38.12 94.666l-1.19 4.466v3.2h3.44c30.744 8.875 67.266 15.922 104.738 19.766l2.75.23 2.88.28v-3.443c.635-29.63 2.998-58.068 7-85.976l-.44 3.76v-2.6h-2.56c-29.405-12.073-53.715-24.084-77.11-37.507l3.17 1.676zm-101.693-72.18v8c6.583 49.48 19.863 94.338 39.036 135.92l-1.206-2.917 3.12 7.438 2.88-7.758c11.04-31.784 22.45-58.195 35.493-83.63l-1.702 3.653 2.28-2.52-2.56-1.72c-26.975-17.094-50.145-34.006-72.158-52.264l1.137.916zM194.29 548.95l-4.837 6.877c-11.857 16.214-23.985 34.927-35.088 54.303l-1.584 3-1.72 2.88 2.84 1.72c16.574 9.526 37.092 19.778 58.18 28.968l4.284 1.663 7.718 3.44-3.44-7.718c-12.06-25.168-21.272-54.375-26.15-85.025l-.24-1.83zm-74.175-82.817l-2.88 2c-26.38 21.75-50.064 44.432-71.974 68.746l-.525.592-2.32 2.32 2.64 2.28c23.627 20.837 49.627 40.377 77.097 57.808l2.52 1.494 2.88 2 1.718-3.2c14.42-25.502 28.345-46.92 43.414-67.45l-1.307 1.868v-1.998l-1.72-2c-15.993-18.32-31.623-38.395-46.107-59.323l-1.48-2.257zm88.532-60.18l-7.198 3.998c-18.596 10.917-37.19 22.913-54.985 35.55l-2.6 2 2 2.56c12.355 17.474 25.79 34.67 39.827 51.024l5.478 6.598v-8.32c1.085-31.05 6.33-60.48 15.193-88.29l-.637 2.314zM57.89 355.842l-2.518 8c-13.497 39.9-21.896 85.92-23.218 133.71l-.014.652v8.355l5.718-6.08c19.652-20.252 40.312-39.176 62.04-56.838l1.302-1.026 2.28-1.72-1.72-2.56C88.16 417.42 74.5 392.91 62.445 367.49l-1.675-3.928zm124.205-69.658c-39.827 7.35-74.745 17.265-108.252 30.038l4.202-1.407h-3.12v3.16c15.847 39.48 32.845 72.947 52.364 104.7l-1.7-2.97 1.72 2.84 2.88-1.96c19.747-14.325 42.41-28.67 65.957-41.603l3.383-1.703 2.28-1.4v-2.24c-6.35-22.953-12.062-51.325-15.937-80.28l-.378-3.455v-3.68zm101.97-5.48c-22.264.315-43.815 1.875-64.996 4.615l2.813-.297c2.56 20.914 6.278 41.508 10.88 62.144 14.99-25.23 31.968-47.032 51.316-66.477l-.015.014zm69.023-97.13c-5.718 17.474-10.596 35.51-15.196 53.863 19.17-12.245 41.22-23.086 64.474-31.392l2.306-.72c-16.916-7.996-33.792-15.195-51.584-21.753zm-176.192-11.48c-28.042 27.813-52.627 59.04-73.098 93.026l-1.2 2.15c19.854-6.26 45.12-12.42 70.896-17.124l4.162-.63c-.95-13.618-1.492-29.51-1.492-45.53 0-11.217.266-22.37.79-33.458l-.058 1.567zm42.388-22.033c-1.162 13.984-1.824 30.268-1.824 46.707s.662 32.72 1.962 48.824l-.138-2.12c23.473-2.598 47.827-3.998 72.46-4.278 6.152-28.316 12.763-51.725 20.585-74.572l-1.392 4.674c-25.446-7.645-56.445-14.368-88.168-18.833l-3.486-.402zM408.95 62.13c-13.334 22.175-26.662 48.432-38.187 75.64l-1.602 4.256c26.246 9.188 47.444 18.1 68.032 28.074l-3.848-1.68q8.106-10.583 17.195-20.353 14.036-17.157 28.628-32.675c-20.9-18.49-43.816-36.018-67.94-51.858l-2.278-1.405zm-50.106-2.88c-40.09 14.006-74.753 31.233-106.804 52.13l1.874-1.145c28.69 5.038 53.097 11.005 76.892 18.365l-4.393-1.17c11.57-27.872 22.44-50.285 34.368-72.035l-1.936 3.856zM513.8 33.456c-19.205.025-38.116 1.158-56.708 3.337l2.282-.218c27.113 18.77 50.758 37.59 73.09 57.83l-.59-.526 19.194 17.515-18.595 17.995c-15.715 15.086-30.428 30.8-44.275 47.268l-.752.918-7.118 8.6c10.212-1.18 22.157-1.905 34.252-2h.138c178.486 2.112 322.362 147.294 322.362 326.08 0 180.1-146 326.102-326.102 326.102-61.91 0-119.792-17.253-169.098-47.213l1.446.816c-21.904 2.7-47.26 4.24-72.976 4.24h-35.032c1.102 41.403 4.9 80.96 11.24 119.66l-.683-5.053c75.016 51.17 167.66 81.705 267.433 81.705 264.284 0 478.528-214.244 478.528-478.528 0-264.11-213.965-478.25-478.01-478.528h-.028z" fill="#00b0ff"/></svg>